<svg width="48" height="47" viewBox="0 0 28 27" fill="none" xmlns="http://www.w3.org/2000/svg">
 <path d="M24.6667 26.8333H3.33332C2.62608 26.8333 1.9478 26.5523 1.44771 26.0523C0.947609 25.5522 0.666656 24.8738 0.666656 24.1666V9.56528C0.68882 9.12459 0.818359 8.69594 1.04401 8.31667C1.26965 7.93739 1.58455 7.61907 1.96132 7.38928L12.628 0.989307C13.0423 0.740895 13.5163 0.60968 13.9993 0.60968C14.4824 0.60968 14.9563 0.740895 15.3707 0.989307L26.0373 7.38928C26.8386 7.87331 27.3307 8.73998 27.3333 9.67598V24.1666C27.3333 24.8738 27.0524 25.5522 26.5523 26.0523C26.0522 26.5523 25.3739 26.8333 24.6667 26.8333ZM3.33332 10.6573V24.1666H24.6667V10.6573L14 17.7679L3.33332 10.6573ZM14 3.27597L5.08799 8.62265L14 14.564L22.9107 8.62265L14 3.27597Z" fill="#F0E3CA"/>
</svg>