<svg width="32" height="33" viewBox="0 0 32 33" fill="white" xmlns="http://www.w3.org/2000/svg">
<path d="M16 0.896019C7.161 0.896019 0 8.06302 0 16.896C0 23.9691 4.584 29.964 10.937 32.079C11.74 32.23 12.03 31.735 12.03 31.307C12.03 30.927 12.021 29.922 12.015 28.588C7.562 29.552 6.624 26.437 6.624 26.437C5.895 24.5931 4.843 24.098 4.843 24.098C3.395 23.109 4.958 23.13 4.958 23.13C6.562 23.239 7.406 24.775 7.406 24.775C8.83299 27.223 11.15 26.515 12.067 26.103C12.207 25.072 12.624 24.363 13.078 23.968C9.52602 23.567 5.791 22.192 5.791 16.061C5.791 14.31 6.411 12.884 7.436 11.764C7.259 11.363 6.717 9.73301 7.577 7.52902C7.577 7.52902 8.91604 7.10202 11.977 9.17004C13.2809 8.81538 14.6258 8.63351 15.977 8.62901C17.337 8.638 18.696 8.81599 19.977 9.17004C23.02 7.10202 24.358 7.52902 24.358 7.52902C25.217 9.73301 24.675 11.362 24.519 11.764C25.534 12.884 26.154 14.311 26.154 16.061C26.154 22.206 22.414 23.5611 18.858 23.952C19.414 24.431 19.935 25.416 19.935 26.911C19.935 29.051 19.915 30.775 19.915 31.296C19.915 31.712 20.195 32.212 21.019 32.051C27.419 29.958 31.998 23.958 31.998 16.895C31.998 8.06202 24.837 0.89502 15.998 0.89502L16 0.896019Z" fill="#F0E3CA"/>
</svg>