<svg version="1.0" xmlns="http://www.w3.org/2000/svg" width="256.000000pt" height="256.000000pt" viewBox="0 0 256.000000 256.000000" preserveAspectRatio="xMidYMid meet">
<g transform="translate(0.000000,256.000000) scale(0.100000,-0.100000)" fill="#ffffff" stroke="none">
<path d="M1095 2550 c-633 -100 -1095 -635 -1095 -1270 0 -708 572 -1280 1280 -1280 185 0 371 40 536 115 l74 34 -203 274 c-112 151 -321 447 -463 657 l-259 382 -5 -377 c-6 -425 -1 -405 -85 -405 -79 0 -75 -28 -75 542 0 423 2 507 14 517 9 7 39 11 77 9 l64 -3 509 -772 510 -771 60 41 c96 67 236 214 311 326 143 215 215 453 215 711 0 463 -247 887 -652 1116 -94 54 -215 101 -330 130 -84 21 -133 26 -263 29 -88 2 -187 0 -220 -5z m637 -777 c17 -15 18 -43 18 -465 0 -246 -3 -448 -7 -448 -5 1 -41 52 -80 114 l-73 113 0 336 c0 292 2 338 16 351 21 22 102 21 126 -1z" fill="#f0e3ca"/>
</g>
</svg> 